<?xml version="1.0" standalone="no"?>
<!DOCTYPE svg PUBLIC "-//W3C//DTD SVG 20010904//EN"
 "http://www.w3.org/TR/2001/REC-SVG-20010904/DTD/svg10.dtd">
<svg version="1.0" xmlns="http://www.w3.org/2000/svg"
 width="904.000000pt" height="1280.000000pt" viewBox="0 0 904.000000 1280.000000"
 preserveAspectRatio="xMidYMid meet">

<g transform="translate(0.000000,1280.000000) scale(0.100000,-0.100000)"
fill="#000000" stroke="none">
<path d="M0 6400 l0 -6400 4520 0 4520 0 0 6400 0 6400 -4520 0 -4520 0 0
-6400z m4820 4207 c0 -17 -39 -115 -75 -192 -43 -88 -92 -165 -135 -210 -40
-42 -59 -95 -60 -167 0 -47 -15 -46 253 -13 630 77 1213 120 1516 112 309 -8
272 -22 -62 -23 -394 -1 -901 -41 -1512 -117 -155 -20 -180 -25 -179 -40 2
-21 -12 -22 -23 -2 -8 13 -27 12 -163 -5 -85 -11 -171 -24 -191 -30 -20 -5
-55 -10 -77 -10 -67 0 -275 -31 -304 -46 -31 -16 -52 -42 -119 -149 -53 -84
-137 -178 -151 -169 -13 8 61 114 188 272 15 18 24 35 20 39 -7 7 -98 -5 -356
-48 l-175 -30 -43 -49 c-24 -28 -51 -50 -61 -50 -22 0 -41 19 -41 42 0 27 4
28 -301 -38 -23 -5 -30 -17 -48 -70 -12 -36 -43 -113 -70 -172 -27 -59 -58
-128 -69 -154 -12 -27 -26 -48 -31 -48 -7 0 -11 23 -11 55 0 65 35 143 111
246 44 60 74 117 66 125 -2 2 -64 -12 -138 -31 -215 -56 -250 -71 -219 -90 6
-3 10 -20 10 -36 0 -61 -128 -164 -281 -225 -155 -62 -414 -126 -452 -111 -10
4 -17 15 -17 26 0 70 237 219 505 316 55 20 115 42 134 49 l35 13 -25 15 c-13
8 -67 40 -119 71 -136 79 -189 150 -190 252 0 141 159 287 330 302 145 13 213
-69 151 -184 -11 -22 -49 -53 -63 -53 -16 0 -7 18 11 23 26 7 52 60 53 108 0
31 -5 44 -23 57 -52 37 -114 41 -201 11 -198 -66 -289 -226 -208 -366 34 -58
105 -113 237 -183 l81 -43 169 46 c92 25 180 48 194 51 30 6 45 34 29 50 -7 7
-10 6 -10 -4 0 -7 -3 -10 -7 -7 -3 4 -17 -2 -29 -14 -12 -12 -29 -19 -36 -17
-7 3 -18 -2 -24 -10 -14 -20 -64 -8 -64 15 0 14 -5 12 -27 -8 -17 -16 -42 -26
-63 -28 -19 -1 -41 -8 -50 -16 -19 -17 -60 -20 -60 -4 0 17 20 49 30 49 6 0
10 -10 10 -22 0 -20 3 -19 33 15 17 20 36 37 41 37 6 0 5 -5 -2 -12 -7 -7 -12
-17 -12 -23 1 -5 12 4 26 20 17 19 28 26 31 18 3 -10 10 -10 25 -2 15 8 22 7
32 -7 12 -15 15 -14 34 14 12 16 22 37 22 46 0 9 5 16 10 16 6 0 10 -19 10
-41 0 -37 2 -40 16 -28 14 12 64 100 64 114 0 4 -15 4 -32 1 -33 -6 -33 -6 6
12 44 20 45 24 153 317 36 99 68 186 71 194 3 9 1 12 -6 7 -7 -4 -12 -4 -12
-1 0 12 40 84 51 90 22 14 21 -7 -4 -72 -14 -38 -49 -131 -77 -208 -43 -119
-95 -256 -109 -289 -2 -5 9 -6 25 -3 l29 7 -31 -16 c-19 -10 -40 -34 -53 -60
-25 -53 -25 -54 -6 -54 9 0 18 -12 22 -30 4 -22 10 -29 22 -26 9 2 50 12 91
21 41 9 109 25 150 35 42 10 99 22 128 26 65 8 76 22 127 159 29 78 35 103 26
117 -15 24 -14 28 8 28 18 0 30 27 119 269 11 28 -89 -51 -115 -92 -15 -23
-28 -44 -30 -46 -2 -2 -6 -2 -9 1 -16 17 105 158 135 158 5 0 17 8 27 18 10 9
27 18 38 19 138 16 140 15 169 -7 39 -31 39 -108 -1 -171 -59 -91 -153 -157
-232 -160 -14 -1 -36 -4 -49 -8 -22 -6 -19 -11 50 -65 76 -61 129 -114 129
-130 0 -5 8 1 19 12 24 28 34 28 26 0 -6 -20 -2 -18 29 11 36 35 61 37 35 4
-13 -17 -13 -17 13 0 25 16 28 16 37 0 8 -14 14 -9 38 32 81 139 176 268 264
359 53 56 100 98 103 95 3 -3 -27 -40 -69 -83 -41 -42 -102 -113 -137 -158
-63 -83 -161 -245 -156 -257 5 -10 128 9 128 20 0 5 -8 9 -17 9 -21 0 -6 15
25 25 18 5 22 2 22 -14 0 -26 0 -26 170 -2 l135 19 37 42 c20 22 68 94 108
159 55 91 74 134 85 187 16 75 79 211 107 228 45 27 29 -30 -53 -197 -27 -54
-49 -110 -49 -123 0 -38 28 -83 55 -90 40 -10 68 17 89 81 40 129 194 385 231
385 8 0 15 -6 15 -13z m-2019 -844 c10 -12 11 -15 1 -9 -7 4 -19 2 -27 -4 -12
-10 -15 -10 -15 2 0 31 21 36 41 11z"/>
<path d="M4722 10491 c-55 -83 -116 -205 -127 -256 l-7 -30 22 25 c11 14 32
42 46 64 52 79 142 276 126 276 -4 0 -31 -36 -60 -79z"/>
<path d="M4480 10445 c-17 -36 -30 -71 -28 -77 2 -6 19 22 37 61 18 40 31 75
28 77 -3 3 -19 -24 -37 -61z"/>
<path d="M3480 10399 c-22 -8 -35 -32 -78 -142 -28 -72 -55 -141 -59 -151 -6
-18 -3 -19 43 -12 133 18 253 131 257 243 2 34 -3 48 -17 59 -22 16 -107 18
-146 3z"/>
<path d="M4398 10210 c-8 -14 -37 -61 -63 -105 -26 -44 -61 -97 -78 -119 l-31
-38 30 6 c16 3 83 13 148 21 66 8 121 16 122 18 1 1 4 35 8 74 l7 73 -28 -6
c-37 -7 -80 26 -91 69 l-8 32 -16 -25z"/>
<path d="M3295 9967 c-15 -39 -36 -92 -46 -116 -11 -24 -19 -45 -19 -46 0 -1
60 8 133 21 72 13 138 23 145 24 6 0 12 5 12 12 0 14 -92 101 -154 146 l-44
32 -27 -73z"/>
<path d="M3650 9880 c0 -5 4 -10 9 -10 6 0 13 5 16 10 3 6 -1 10 -9 10 -9 0
-16 -4 -16 -10z"/>
<path d="M3145 9765 c-5 -2 -22 -6 -37 -9 -19 -4 -28 -13 -28 -26 0 -42 47
-36 80 11 20 28 16 34 -15 24z"/>
<path d="M2205 9521 c-145 -50 -285 -112 -379 -167 -76 -46 -176 -128 -176
-145 0 -40 341 48 509 132 89 44 191 133 191 165 0 12 -8 28 -18 37 -16 15
-26 13 -127 -22z"/>
<path d="M2612 9446 c-32 -52 -53 -107 -51 -136 0 -16 8 -1 60 113 17 38 29
70 27 73 -2 2 -19 -20 -36 -50z"/>
</g>
</svg>
